<svg xmlns:dc="http://purl.org/dc/elements/1.1/" xmlns:cc="http://creativecommons.org/ns#" xmlns:rdf="http://www.w3.org/1999/02/22-rdf-syntax-ns#" xmlns:svg="http://www.w3.org/2000/svg" xmlns="http://www.w3.org/2000/svg" xmlns:sodipodi="http://sodipodi.sourceforge.net/DTD/sodipodi-0.dtd" xmlns:inkscape="http://www.inkscape.org/namespaces/inkscape" version="1.1" x="0px" y="0px" viewBox="0 0 100 125"><g transform="translate(0,-952.36218)"><path style="text-indent:0;text-transform:none;direction:ltr;block-progression:tb;baseline-shift:baseline;color:#000000;enable-background:accumulate;" d="m 14.2815,970.26843 c -3.791,0 -6.875,3.0845 -6.875,6.875 l 0,9.2188 0,0.125 0,41.09367 c 0,3.7905 3.084,6.875 6.875,6.875 l 71.437,0 c 3.791,0 6.875,-3.0845 6.875,-6.875 l 0,-40.99997 0,-0.2187 0,-9.2188 c 0,-0.241 0,-0.4536 -0.03,-0.6875 -0.353,-3.4621 -3.29,-6.1875 -6.844,-6.1875 l -71.437,0 z m 0.656,2.2188 70.125,0 c 3.024,0 5.312,2.1116 5.312,4.6562 l 0,8.125 -80.781,0 0,-8.125 c 0,-0.2958 0.03,-0.5623 0.09,-0.8438 l 0,-0.062 0,-0.031 c 0.01,-0.056 0.05,-0.101 0.06,-0.1563 0.559,-2.019 2.618,-3.5624 5.187,-3.5624 z m 14.313,2.2187 c -2.264,0 -4.126,1.689 -4.126,3.75 0,2.061 1.861,3.75 4.126,3.75 2.262,0 4.124,-1.689 4.124,-3.75 0,-2.061 -1.862,-3.75 -4.124,-3.75 z m 41.5,0 c -2.264,0 -4.126,1.689 -4.126,3.75 0,2.061 1.861,3.75 4.126,3.75 2.262,0 4.124,-1.689 4.124,-3.75 0,-2.061 -1.862,-3.75 -4.124,-3.75 z m -41.5,2.0937 c 1.018,0 1.812,0.7298 1.812,1.6563 0,0.9265 -0.794,1.6875 -1.812,1.6875 -1.021,0 -1.813,-0.761 -1.813,-1.6875 0,-0.9265 0.792,-1.6563 1.813,-1.6563 z m 41.5,0 c 1.018,0 1.812,0.7298 1.812,1.6563 0,0.9265 -0.794,1.6875 -1.812,1.6875 -1.021,0 -1.813,-0.761 -1.813,-1.6875 0,-0.9265 0.792,-1.6563 1.813,-1.6563 z m -61.157,10.6876 18.563,0 0,9.5624 -18.563,0 0,-9.5624 z m 20.75,0 18.563,0 0,9.5624 -18.563,0 0,-9.5624 z m 20.75,0 18.563,0 0,9.5624 -18.563,0 0,-9.5624 z m 20.75,0 18.563,0 0,9.5624 -18.563,0 0,-9.5624 z m -62.25,11.7812 18.563,0 0,9.46877 -18.563,0 0,-9.46877 z m 20.75,0 18.563,0 0,9.46877 -18.563,0 0,-9.46877 z m 20.75,0 18.563,0 0,3.84377 c -0.922,0.1477 -1.847,0.3794 -2.75,0.6874 -2.938,1.0006 -5.298,2.7566 -6.969,4.9376 l -8.844,0 0,-9.46877 z m 20.75,0 18.563,0 0,9.46877 -6.032,0 c -2.684,-3.4844 -6.999,-5.6297 -11.593,-5.8126 -0.31,-0.012 -0.625,-0.01 -0.938,0 l 0,-3.65617 z m -0.375,5.74997 c 0.415,-0.024 0.809,-0.016 1.219,0 4.923,0.1899 9.472,3.0234 11.313,7.5 2.453,5.9688 -0.85,12.5788 -7.407,14.8125 -6.556,2.2338 -13.828,-0.7812 -16.281,-6.75 -2.454,-5.9688 0.85,-12.5788 7.406,-14.8125 1.23,-0.4189 2.506,-0.6789 3.75,-0.75 z m 0.532,2.3438 c -0.793,0.019 -1.606,0.117 -2.407,0.3124 -4.27,1.0417 -7.251,4.5186 -7.437,8.4688 a 1.1099955,1.1099955 0 0 0 2.218,0.094 c 0.139,-2.9139 2.313,-5.6069 5.719,-6.4376 2.57,-0.627 5.178,0.02 7.063,1.4376 l -0.188,-0.031 a 1.1071915,1.1071915 0 1 0 -0.344,2.1875 l 3.032,0.4688 a 1.10011,1.10011 0 0 0 1.25,-0.9063 l 0.5,-2.75 a 1.10011,1.10011 0 0 0 -1.219,-1.3125 1.10011,1.10011 0 0 0 -0.937,0.9062 l -0.06,0.25 c -1.711,-1.5623 -3.986,-2.5492 -6.406,-2.6874 -0.261,-0.015 -0.516,-0.01 -0.781,0 z m -62.407,3.5937 18.563,0 0,9.4687 -18.563,0 0,-9.4687 z m 20.75,0 18.563,0 0,9.4687 -18.563,0 0,-9.4687 z m 20.75,0 7.469,0 c -1.439,2.9018 -1.779,6.2313 -0.719,9.4687 l -6.75,0 0,-9.4687 z m 34.688,0 4.625,0 0,9.4687 -3.906,0 c 0.891,-2.7357 0.838,-5.747 -0.344,-8.625 -0.118,-0.2862 -0.239,-0.5688 -0.375,-0.8437 z m -4.719,4.7813 a 1.10011,1.10011 0 0 0 -0.219,0.031 1.10011,1.10011 0 0 0 -0.906,1.0625 c -0.128,2.9234 -2.331,5.6033 -5.75,6.4375 -2.608,0.6358 -5.25,0.012 -7.125,-1.4375 l 0.281,0.031 a 1.10011,1.10011 0 1 0 0.313,-2.1563 l -3.032,-0.4687 a 1.10011,1.10011 0 0 0 -0.312,0 1.10011,1.10011 0 0 0 -0.938,0.875 l -0.5,2.7812 a 1.10011,1.10011 0 1 0 2.157,0.375 l 0.06,-0.25 c 2.447,2.2697 6.068,3.2737 9.625,2.4062 4.277,-1.0434 7.234,-4.5366 7.406,-8.5 a 1.10011,1.10011 0 0 0 -1.062,-1.1874 z m -22.312,6.8124 c 2.156,4.0172 6.291,6.6816 10.906,7.4063 l 0,2.3125 -18.563,0 0,-9.6562 7.657,-0.063 z m -49.157,0.063 18.563,0 0,9.6562 -13.875,0 c -2.61,0 -4.688,-2.0777 -4.688,-4.6875 l 0,-4.9687 z m 20.75,0 18.563,0 0,9.6562 -18.563,0 0,-9.6562 z m 55.219,0 4.844,0 0,4.9687 c 0,2.6098 -2.078,4.6875 -4.688,4.6875 l -13.875,0 0,-2.125 c 1.852,0.039 3.724,-0.2174 5.563,-0.8438 3.694,-1.2586 6.532,-3.7046 8.156,-6.6874 z" fill="#000000" fill-opacity="1" stroke="none" marker="none" visibility="visible" display="inline" overflow="visible"/></g><text x="0" y="115" fill="#000000" font-size="5px" font-weight="bold" font-family="'Helvetica Neue', Helvetica, Arial-Unicode, Arial, Sans-serif">Created by Artdabana@Design</text><text x="0" y="120" fill="#000000" font-size="5px" font-weight="bold" font-family="'Helvetica Neue', Helvetica, Arial-Unicode, Arial, Sans-serif">from the Noun Project</text></svg>